<svg width="207" height="199" viewBox="0 0 207 199" fill="none" xmlns="http://www.w3.org/2000/svg">
<g clip-path="url(#clip0_3_158)">
<g clip-path="url(#clip1_3_158)">
<g filter="url(#filter0_d_3_158)">
<path d="M157.077 127.215C128.728 168.555 80.8515 160.215 58.1877 138.567C58.1877 138.567 33.1731 113.507 53.5408 90.0692C62.1508 80.1615 63.6177 69.7154 65.8985 60.4185C69.0154 47.7261 73.65 37.17 100.07 33.0554C117.839 30.2862 134.682 37.6331 146.974 50.0762C166.341 69.6769 174.42 101.928 157.077 127.215Z" fill="#B2B4DE"/>
<path d="M157.077 127.215C128.728 168.555 80.8515 160.215 58.1877 138.567C58.1877 138.567 37.7954 118.138 48.8269 96.9192C50.0131 94.6369 51.5631 92.3454 53.5408 90.0731C62.1508 80.1654 63.6177 69.7208 65.8985 60.4246C65.9054 60.6708 66.6 82.6954 90.7592 76.1354C109.538 71.0339 125.082 52.2746 146.976 50.0769C157.875 61.1085 165.199 76.1485 166.428 91.6977C167.385 103.775 164.66 116.16 157.077 127.215Z" fill="#A6A6DA"/>
<path d="M157.077 127.215C128.728 168.555 80.8515 160.215 58.1877 138.567C58.1877 138.567 48.6815 129.044 46.1615 116.248C44.99 110.302 45.3269 103.651 48.8269 96.9192C58.7585 102.942 81.0631 113.855 97.8362 102.727C116.516 90.3323 146.021 71.66 166.425 91.6969C166.588 93.7528 166.643 95.816 166.587 97.8777C166.316 107.948 163.371 118.04 157.077 127.215Z" fill="#8792D0"/>
<path d="M157.077 127.215C128.728 168.555 80.8515 160.215 58.1877 138.567C58.1877 138.567 48.6815 129.044 46.1615 116.248C46.1615 116.248 55.6739 130.787 82.3923 134.802C111.627 139.195 138.797 102.187 166.584 97.8792C166.316 107.948 163.371 118.04 157.077 127.215Z" fill="#7385C3"/>
<path d="M83.8716 76.3915C83.3731 76.3308 82.3331 76.4031 81.2492 76.2654C80.7 76.1962 78.1177 76.0423 77.7931 75.6715C77.4685 75.3008 77.4154 74.1131 77.7708 74.0938C78.1262 74.0746 82.8108 74.5431 83.0415 74.5792C83.2723 74.6154 83.8716 76.3915 83.8716 76.3915Z" fill="#070208"/>
<path d="M82.6423 73.1277C82.5292 72.7115 80.9562 72.5469 80.3015 72.7169C80.1305 72.7652 79.9693 72.8433 79.8254 72.9477C79.3925 72.8351 78.9393 72.8243 78.5015 72.9162C78.3789 72.9493 78.2621 73.0012 78.1554 73.07C77.811 73.0009 77.4561 73.0025 77.1123 73.0746C77.0597 73.0888 77.0082 73.107 76.9585 73.1292C76.6712 73.0912 76.3795 73.1029 76.0961 73.1638C75.5923 73.2946 74.9423 73.9723 74.8415 74.9969C74.7408 76.0215 75.7123 76.41 76.1931 76.5685C76.4331 76.6454 76.6123 76.4777 76.7315 76.2885C76.8847 76.3632 77.0431 76.427 77.2054 76.4792C77.4123 76.5477 77.5731 76.4315 77.69 76.2777C77.9698 76.4752 78.2793 76.6269 78.6069 76.7269C78.8561 76.8085 79.0461 76.65 79.1785 76.4592C79.5677 76.8246 80.0885 77.0223 80.4238 77.1331C81.0477 77.3385 81.3515 76.2538 81.3515 76.2538C80.6508 76.2608 80.9669 74.9462 81.0492 74.4562C81.0715 74.3269 81.3669 73.9031 82.1592 74.1277C82.7731 74.3077 82.6423 73.1277 82.6423 73.1277Z" fill="#FFC267"/>
<path d="M79.1746 76.4731C79.0323 76.3787 78.9258 76.2391 78.8723 76.0769C78.8164 75.9162 78.7885 75.7471 78.79 75.5769C78.7893 75.4933 78.7952 75.4097 78.8077 75.3269C78.8131 75.2862 78.8185 75.2446 78.8254 75.2038L78.8508 75.0831C78.8885 74.9231 78.9354 74.7754 78.98 74.6269C79.0246 74.4785 79.0831 74.3308 79.1415 74.1862C79.2 74.0415 79.2608 73.8969 79.3315 73.7569C79.4651 73.4707 79.6269 73.1986 79.8146 72.9446L79.8354 72.9538C79.6046 73.5277 79.3892 74.1077 79.1992 74.6985C79.1031 74.9923 79.0008 75.2861 78.9685 75.5931C78.9528 75.7471 78.9595 75.9025 78.9885 76.0546C79.0155 76.2052 79.084 76.3453 79.1862 76.4592L79.1746 76.4731ZM77.6815 76.2862C77.5283 76.0386 77.434 75.7591 77.4062 75.4692C77.4062 75.4338 77.3954 75.3977 77.3931 75.3615L77.3877 75.2539C77.3841 75.1815 77.3841 75.1092 77.3877 75.0369C77.394 74.8927 77.4076 74.749 77.4285 74.6062C77.478 74.3228 77.5636 74.047 77.6831 73.7854C77.7423 73.6556 77.8102 73.53 77.8862 73.4092C77.9652 73.2898 78.0526 73.1762 78.1477 73.0692L78.1685 73.0792C78.1123 73.2054 78.0531 73.33 78.0008 73.4577L77.9239 73.65C77.8971 73.7136 77.8737 73.7786 77.8539 73.8446L77.7915 74.0408C77.77 74.1062 77.7562 74.1738 77.7385 74.2408C77.7015 74.3731 77.68 74.5092 77.6531 74.6438C77.6075 74.915 77.5864 75.1897 77.59 75.4646C77.59 75.5339 77.59 75.6023 77.6 75.6708C77.61 75.7392 77.6123 75.8077 77.6208 75.8754C77.6368 76.0119 77.6646 76.1468 77.7039 76.2785L77.6815 76.2862ZM76.7254 76.3C76.4965 76.1052 76.3276 75.8494 76.2385 75.5623C76.2112 75.4918 76.1906 75.4189 76.1769 75.3446C76.1595 75.2706 76.1467 75.1956 76.1385 75.12C76.1304 75.0433 76.1263 74.9663 76.1262 74.8892L76.1346 74.6585C76.1684 74.3588 76.2587 74.0683 76.4008 73.8023C76.4328 73.7352 76.4712 73.6713 76.5154 73.6115L76.6431 73.4323C76.7379 73.3223 76.8408 73.2195 76.9508 73.1246L76.97 73.1377C76.8931 73.2577 76.8162 73.3746 76.75 73.4961L76.6554 73.6838L76.6077 73.7777C76.5923 73.8092 76.5823 73.8431 76.5692 73.8754L76.4923 74.0715C76.4685 74.1369 76.4554 74.2062 76.4354 74.2731L76.4092 74.3746C76.4 74.4077 76.3969 74.4431 76.3908 74.4777C76.3808 74.5462 76.3677 74.6154 76.3608 74.6846C76.3325 74.9628 76.3505 75.2438 76.4138 75.5162C76.4749 75.7904 76.5857 76.0511 76.7408 76.2854L76.7254 76.3Z" fill="#D89A47"/>
<path d="M161.939 115.356C160.164 115.318 158.498 114.356 157.585 113.558L159.408 111.468C159.502 111.549 161.859 113.537 163.421 111.978C165.442 109.962 170.388 97.7731 170.652 94.4685L165.432 94.3539L165.493 91.5846L171.551 91.7177C172.304 91.7346 172.928 92.1792 173.221 92.9108C173.812 94.3862 172.957 98.0285 170.682 103.737C169.179 107.506 166.889 112.438 165.379 113.945C164.308 115.012 163.099 115.385 161.939 115.356Z" fill="#070208"/>
<path d="M130.56 42.6737L129.613 92.0231L176 92.9138L176.947 43.5644L130.56 42.6737Z" fill="#4755BF"/>
<path d="M161.09 43.5033L160.005 92.8498L176.368 93.2097L177.453 43.8632L161.09 43.5033Z" fill="#4468C7"/>
<path d="M127.57 88.8908L127.512 91.9348L175.944 92.8648L176.003 89.8208L127.57 88.8908Z" fill="#2D0446"/>
<path d="M159.16 89.5391L159.102 92.5831L177.143 92.9295L177.202 89.8855L159.16 89.5391Z" fill="#6D378F"/>
<path d="M130.936 48.8401L130.894 50.7458L177.278 51.766L177.32 49.8603L130.936 48.8401Z" fill="#C41C0F"/>
<path d="M131.068 42.8435L130.921 49.5134L177.305 50.5336L177.452 43.8637L131.068 42.8435Z" fill="#4468C7"/>
<path d="M162.858 43.5423L162.712 50.2122L178.537 50.5603L178.684 43.8903L162.858 43.5423Z" fill="#1D3DCA"/>
<path d="M165.629 57.262L165.581 59.4399L172.264 59.5869L172.312 57.409L165.629 57.262Z" fill="#070208"/>
<path fill-rule="evenodd" clip-rule="evenodd" d="M167.547 43.5015V54.38L170.692 55.1592V43.58L167.547 43.5015Z" fill="white"/>
<path d="M119.122 46.8346C119.122 46.8346 129.385 42.3923 129.342 43.3215C129.342 43.3215 125.839 49.0777 124.436 50.1385C123.033 51.1992 121.672 50.8108 121.672 50.8108C121.672 50.8108 118.134 49.78 118.392 48.8015C118.58 48.1266 118.824 47.4686 119.122 46.8346Z" fill="#BBC3C4"/>
<path d="M128.361 50.1338C126.552 52.3985 119.597 56.2462 119.71 50.1754C119.762 47.3292 119.438 45.9362 119.079 45.2646C118.675 44.5054 118.225 44.6623 118.225 44.6623C118.225 44.6623 121.43 37.3885 123.522 35.6308C124.438 34.8615 125.138 35.1492 125.268 37.5646C125.294 38.0408 125.332 38.4877 125.381 38.9069C126.145 45.4877 129.612 45.3962 129.612 45.3962C129.612 45.3962 129.627 45.4662 129.645 45.5915C129.745 46.396 129.683 47.2125 129.463 47.9927C129.242 48.7728 128.867 49.5009 128.361 50.1338Z" fill="#FFC267"/>
<path d="M126.629 35.0462C126.396 36.3846 125.977 37.684 125.385 38.9069C124.79 40.1267 124.024 41.2548 123.109 42.2569C121.913 43.5692 120.654 44.4615 119.692 44.9769C119.515 45.0715 119.312 45.1685 119.083 45.2646C116.473 46.3577 110.746 47.1546 108.178 39.2546C106.498 34.0908 107.612 29.9469 108.768 27.4608C109.537 25.8123 110.319 24.8946 110.319 24.8946C110.319 24.8946 113.481 24.0877 118.557 23.5438C123.633 23 127.626 29.4323 126.629 35.0462Z" fill="#FFC267"/>
<path d="M129.645 45.5915C128.803 45.9762 126.971 45.2008 126.244 45.1892C124.628 45.1639 119.978 46.7346 119.349 45.9585C118.763 45.2339 123.528 43.3946 123.461 42.4815C123.33 40.7023 123.515 38.7646 123.515 38.7646C123.515 38.7646 125.012 40.5377 123.522 35.6323C123.385 35.1815 123.223 34.6731 123.032 34.1023C120.764 27.3262 117.661 28.41 114.218 30.1423C110.775 31.8746 108.222 30.9008 108.222 30.9008C108.222 30.9008 108.188 29.7162 108.76 27.4623C109.529 25.8138 110.312 24.8962 110.312 24.8962C110.312 24.8962 113.473 24.0892 118.549 23.5454C123.625 23.0015 127.622 29.4338 126.626 35.0477C126.393 36.3855 125.975 37.6843 125.385 38.9069C126.149 45.4877 129.615 45.3962 129.615 45.3962C129.615 45.3962 129.627 45.4662 129.645 45.5915Z" fill="#D89A47"/>
<path d="M124.358 41.1277C124.358 41.1277 121.118 45.8969 115.716 45.9554C115.716 45.9554 122.202 47.3285 127.086 41.5708C131.971 35.8131 124.358 41.1277 124.358 41.1277Z" fill="black"/>
<path d="M119.077 58.5615C119.077 58.5615 115.884 51.7062 117.732 50.5615C119.581 49.4169 121.676 50.8108 121.676 50.8108C121.676 50.8108 129.355 48.61 129.884 53.1285C130.412 57.6469 119.077 58.5615 119.077 58.5615Z" fill="#BBC3C4"/>
<path d="M120.853 50.7346C120.853 50.7346 118.989 52.55 120.555 54.73C122.122 56.91 125.062 53.0731 124.855 50.5946C124.647 48.1162 126.181 52.3115 126.181 52.3115C126.181 52.3115 125.768 54.4885 124.368 55.6054C122.967 56.7223 121.82 57.5054 121.016 56.9131C120.212 56.3208 117.411 51.7362 117.748 51.0669C118.086 50.3977 120.853 50.7346 120.853 50.7346Z" fill="#858B8C"/>
<path d="M123.035 57.9492C123.023 60.1923 121.727 76.2069 112.156 76.5808C108.306 76.7346 104.203 75.6669 100.701 74.2354C98.5908 73.3731 92.0985 76.7231 90.6115 75.7738C88.4323 74.3892 83.6054 73.9808 83.7508 73.3954C84.1608 71.7477 104.385 65.0285 104.385 65.0285C108.132 58.49 114.048 51.7931 114.048 51.7931C114.048 51.7931 115.455 52.9962 117.362 54.7008C120.657 57.6492 125.438 62.0985 127.002 64.4138C127.332 64.9062 123.036 57.6846 123.035 57.9492Z" fill="white"/>
<path d="M122.576 59.3385C122.564 61.5815 121.725 76.2069 112.156 76.5808C105.986 76.8215 99.1677 73.9462 95.2131 71.4315C97.1877 70.0592 98.9769 69.2777 99.54 69.6262C101.795 71.0108 110.356 71.9823 112.792 67.8646C115.038 64.0662 113.743 53.7777 113.743 53.7777C113.743 53.7777 115.191 54.0854 117.358 54.7008C121.352 58.2754 122.584 57.82 122.576 59.3385Z" fill="#D2D7DB"/>
<path d="M115.431 60.3138C115.431 60.3138 118.585 61.3862 122.179 62.6662C122.102 63.4054 121.995 64.2454 121.833 65.1369C121.275 68.2285 120.099 71.9469 117.642 74.2908C116.257 75.61 114.47 76.4923 112.156 76.5831C108.306 76.7369 104.203 75.6692 100.701 74.2377C100.055 71.8354 100.84 71.4638 104.419 72.6454C107.504 73.6638 110.419 73.1138 112.38 72.4377C113.411 72.0794 114.313 71.4244 114.974 70.5549C115.634 69.6854 116.022 68.6403 116.09 67.5508C116.298 64.2585 115.431 60.3138 115.431 60.3138Z" fill="#AEB6B7"/>
<path d="M121.833 65.1369C121.275 68.2285 120.099 71.9469 117.642 74.2908C117.673 74.2132 117.72 74.1431 117.781 74.0854C119.312 72.47 116.568 63.3869 116.568 63.3869C116.568 63.3869 119.301 63.9377 121.833 65.1369Z" fill="#858B8C"/>
<path d="M126.935 64.3923C125.416 63.8262 123.755 63.2262 122.179 62.6662C122.302 61.4446 122.333 60.4962 122.333 60.0369C122.333 59.8008 126.308 63.8592 126.935 64.3923ZM126.935 64.3923L127.002 64.4177C127.038 64.47 127.012 64.4569 126.935 64.3923ZM104.385 65.0323C104.385 65.0323 107.248 64.8492 111.462 66.8715C111.462 66.8715 112.124 67.0092 109.983 65.6C107.842 64.1908 105.396 63.3462 105.396 63.3462L104.385 65.0323Z" fill="#AEB6B7"/>
<path d="M81.9008 73.2262C83.0123 73.1546 86.7369 73.3223 86.9323 72.6877C87.1277 72.0531 86.9477 70.1 87.5262 68.2485C88.1046 66.3969 89.2569 63.9623 92.2954 63.8731C95.3339 63.7838 97.9792 65.4608 99.0215 66.3162C100.064 67.1715 103.924 71.2708 105.194 71.6608C106.464 72.0508 116.117 74.8854 116.023 75.1492C115.929 75.4131 115.422 78.8154 114.928 78.8046C114.433 78.7938 105.242 77.8938 104.448 78.0631C103.654 78.2323 102.015 78.9492 101.616 81.9269C101.218 84.9046 94.42 81.3492 94.42 81.3492C94.42 81.3492 94.8285 79.5308 94.5546 79.1085C94.2808 78.6862 92.7008 77.62 89.68 77.2439C87.0646 76.9169 85.1038 76.8515 84.7646 76.9162C84.4254 76.9808 82.2077 74.7362 81.73 74.4715C81.58 74.3846 81.9008 73.2262 81.9008 73.2262Z" fill="#060B31"/>
<path d="M116.027 75.1492C115.985 75.27 115.855 76.0508 115.678 76.8608C115.586 77.3105 115.469 77.7548 115.328 78.1915C112.949 77.7977 106.904 76.7046 106.152 76.5685C105.265 76.4085 100.375 74.9277 98.9154 74.2777C97.4554 73.6277 97.6262 71.4185 97.6323 70.7585C97.6037 69.6796 97.4224 68.6103 97.0939 67.5823C96.7446 66.5446 96.1816 65.5685 95.2785 65.1977C93.2016 64.3415 91.4323 64.1292 89.9554 65.3654C89.5892 65.5192 89.9346 64.9085 90.4377 64.3008C91.0226 64.0316 91.657 63.887 92.3008 63.8762C95.3431 63.7877 97.9846 65.4631 99.0269 66.3192C100.069 67.1754 103.929 71.2738 105.199 71.6638C106.469 72.0538 116.117 74.8854 116.027 75.1492Z" fill="#88ABEF"/>
<path d="M92.5915 64.5739C91.2838 64.3985 87.9938 65.2877 87.6077 70.5185C87.27 75.1023 90.4131 76.7346 92.0908 76.9592C93.7146 77.1769 97.1038 75.7523 97.2146 71.1985C97.3331 66.3654 95.3523 64.9431 92.5915 64.5739Z" fill="white"/>
<path d="M115.678 76.8608C115.586 77.3105 115.469 77.7548 115.328 78.1915C112.949 77.7977 106.904 76.7046 106.152 76.5685C105.265 76.4085 100.375 74.9277 98.9154 74.2777C97.4554 73.6277 97.6262 71.4185 97.6323 70.7585C97.6037 69.6796 97.4224 68.6103 97.0939 67.5823C97.1239 67.6323 98.1008 69.2415 98.8631 72.1831C99.5285 74.7692 112.281 76.4569 115.678 76.8608Z" fill="#4472C0"/>
<path d="M115.142 136.948C114.393 135.139 113.097 126.295 113.958 120.69C114.818 115.085 116.661 111.198 119.53 110.755C122.399 110.312 122.562 122.678 122.562 122.678C122.562 122.678 119.36 132.609 119.508 132.739C119.655 132.869 115.142 136.948 115.142 136.948Z" fill="#88ABEF"/>
<path d="M158.957 129.476C158.315 130.991 139.141 144.955 138.248 145.054C137.356 145.153 117.352 147.494 115.992 147.477C115.212 147.468 113.962 143.813 113.04 140.708C116.306 140.903 126.339 141.727 130.858 137.29C135.995 132.248 135.275 122.541 134.96 119.381C134.384 113.588 128.857 108.589 126.072 106.345C124.055 104.717 121.098 103.789 118.623 103.954C118.823 102.807 119.224 101.915 119.874 101.602C121.757 100.696 154.726 103.456 155.182 103.739C155.637 104.022 157.218 107.87 157.746 108.436C158.275 109.002 159.341 111.348 159.965 112.039C160.59 112.731 159.598 127.965 158.957 129.476Z" fill="#0F2C64"/>
<path d="M158.11 104.927C158.138 105.535 157.962 106.669 156.841 106.575C155.719 106.482 144.385 106.175 141.462 105.784C138.538 105.393 125.005 103.991 122.085 103.577C120.678 103.375 117.572 103.138 117.038 102.184C116.505 101.229 117.842 93.4377 118.299 92.7654C118.386 92.6346 118.591 92.5131 118.888 92.3946C121.265 93.03 125.451 93.5238 127.128 93.8908C129.697 94.4562 147.503 97.2792 150.743 97.3815C153.589 97.4715 157.878 95.97 159.603 94.6169C159.631 96.4254 158.085 104.375 158.11 104.927Z" fill="#060B31"/>
<path d="M130.858 137.287C126.339 141.724 116.306 140.902 113.04 140.705C112.356 138.401 111.854 136.397 111.854 136.397C112.931 136.21 115.048 135.998 116.862 133.983C118.676 131.968 119.888 124.137 119.968 121.892C120.047 119.646 120.25 113.608 119.229 110.935C118.564 109.19 118.238 106.118 118.623 103.952C121.098 103.787 124.055 104.715 126.072 106.343C128.857 108.587 134.38 113.585 134.96 119.378C135.275 122.538 135.995 132.245 130.858 137.287Z" fill="#234D99"/>
<path d="M134.114 146.705C134.042 148.073 133.493 152.167 135.944 156.502C138.395 160.838 141.252 163.365 146.052 163.733C150.852 164.102 156.479 159.765 158.45 152.866C160.421 145.967 160.932 140.984 159.879 138.143C159.174 136.24 148.475 140.884 141.278 143.388C137.733 144.622 134.798 144.455 134.798 144.455L134.114 146.705Z" fill="#070208"/>
<path d="M141.952 140.426C141.761 141.447 139.215 149.758 141.822 155.396C144.429 161.035 147.418 161.434 149.167 161.448C152.249 161.475 157.315 157.94 158.859 149.556C160.403 141.172 159.465 138.858 159.465 138.858L141.952 140.426Z" fill="#FFC267"/>
<path d="M114.412 147.851C112.802 148.676 120.248 151.201 121.592 151.044C122.935 150.887 147.842 146.829 147.972 146.297C148.102 145.765 148.078 144.528 147.114 144.278C146.149 144.029 140.062 142.292 139.255 142.185C138.447 142.077 114.79 147.656 114.412 147.851Z" fill="#E0D1AF"/>
<path d="M143.313 140.553C143.272 140.675 143.244 140.8 143.228 140.927C142.92 142.843 142.642 150.629 143.725 152.708C144.908 154.983 146.288 156.708 148.699 156.758C151.111 156.807 155.845 153.142 156.588 144.699C157.232 137.398 156.867 136.03 156.867 136.03L143.285 140.62" fill="#F47204"/>
<path d="M143.523 138.708C143.129 139.867 141.513 152.765 147.035 153.504C152.556 154.242 152.824 139.452 152.824 139.452L143.523 138.708Z" fill="#070208"/>
<path d="M145.365 137.576C144.985 138.825 143.495 150.72 147.605 151.709C151.715 152.698 153.315 145.694 153.337 143.878C153.359 142.063 152.99 138.212 152.99 138.212C153.395 138.1 145.365 137.576 145.365 137.576Z" fill="white"/>
<path d="M150.25 142.348C149.898 142.301 148.976 142.909 148.77 144.452C148.564 145.994 149.146 146.682 149.662 146.748C150.541 146.866 151.277 145.918 151.426 144.573C151.575 143.228 151.184 142.473 150.25 142.348Z" fill="#6F634D"/>
<path d="M150.855 142.769C150.502 142.727 149.624 142.995 149.419 144.538C149.215 146.082 149.745 146.424 150.256 146.522C150.767 146.619 151.652 145.968 151.805 144.624C151.957 143.28 151.275 142.821 150.855 142.769Z" fill="#070208"/>
<path d="M144.762 141.147C143.427 141.244 137.82 141.25 137.019 139.821C136.218 138.392 135.334 132.652 135.69 127.521C136.046 122.389 139.049 114.36 143.552 111.598C148.054 108.835 154.828 108.038 159.854 111.245C164.88 114.452 160.073 133.48 159.864 133.398C159.655 133.317 144.762 141.147 144.762 141.147Z" fill="#060B31"/>
<path d="M170.104 138.408C169.682 138.688 153.166 140.645 147.473 141.076C146.652 141.138 146.057 141.168 145.767 141.157C143.464 141.069 139.707 141.558 138.73 140.215C137.622 138.692 136.6 133.483 137.253 126.958C137.906 120.434 140.285 116.043 143.958 113.088C146.367 111.152 149.41 108.583 158.189 110.915C159.695 111.308 161.134 111.922 162.46 112.736C167.961 116.142 169.963 122.365 170.218 126.852C170.53 132.348 170.588 138.088 170.104 138.408Z" fill="#88ABEF"/>
<path d="M114.584 146.565C112.974 147.391 120.421 149.915 121.763 149.759C123.105 149.603 148.014 145.545 148.144 145.012C148.274 144.478 148.251 143.242 147.285 142.993C146.32 142.744 140.235 141.008 139.427 140.899C138.619 140.791 114.962 146.372 114.584 146.565Z" fill="#060B31"/>
<path d="M113.978 146.154C112.368 146.979 119.815 149.504 121.157 149.347C122.499 149.19 147.966 145.015 148.096 144.482C148.226 143.948 148.092 143.196 147.127 142.943C146.162 142.69 139.628 140.594 138.819 140.486C138.01 140.378 114.356 145.96 113.978 146.154ZM136.692 126.923C136.698 126.943 136.702 126.965 136.708 126.985C137.051 128.446 137.458 130.363 137.828 132.155C138.402 134.935 138.882 137.412 138.882 137.412L134.392 139.664L130.312 128.68L128.073 122.651L126.243 117.722C126.243 117.722 129.118 116.148 132.035 118.226C133.769 119.466 135.524 122 136.692 126.923Z" fill="#FFC267"/>
<path d="M136.692 126.923C134.028 128.469 130.312 128.68 130.312 128.68L128.073 122.651C128.338 121.539 129.038 120.364 130.435 119.21C130.916 118.803 131.455 118.471 132.035 118.226C133.769 119.466 135.524 122 136.692 126.923Z" fill="#D89A47"/>
<path d="M137.827 132.158C138.401 134.938 138.881 137.415 138.881 137.415L134.392 139.667L132.149 133.632C132.581 133.708 135.272 134.085 137.827 132.158Z" fill="#0E50CC"/>
<path d="M139.928 139.929C139.967 140.121 140.026 140.838 140.072 140.985C140.373 141.944 140.742 142.495 135.398 145.027C129.228 147.95 125.302 148.891 122.712 146.552C120.388 144.452 126.492 142.091 133.422 136.612C133.396 136.718 133.081 140.034 138.863 137.038C139.104 136.913 139.236 137.225 139.325 137.483C139.656 138.502 139.735 138.989 139.928 139.929Z" fill="#070208"/>
<path d="M135.398 145.027C129.228 147.95 125.302 148.891 122.712 146.552C122.712 146.552 125.485 147.929 129.395 146.644C132.588 145.593 138.292 142.097 140.072 140.985C140.373 141.944 140.742 142.495 135.398 145.027Z" fill="#0E50CC"/>
<path d="M133.104 139.721C133.057 139.751 133 139.762 132.944 139.752C132.889 139.742 132.84 139.711 132.807 139.665C131.975 138.519 131.187 138.312 131.179 138.309C131.123 138.296 131.074 138.26 131.043 138.211C131.013 138.161 131.003 138.102 131.017 138.045C131.03 137.988 131.065 137.939 131.115 137.909C131.165 137.878 131.224 137.869 131.281 137.882C131.319 137.892 132.225 138.113 133.162 139.407C133.179 139.43 133.191 139.457 133.198 139.485C133.205 139.513 133.206 139.542 133.201 139.571C133.197 139.599 133.187 139.627 133.172 139.652C133.156 139.676 133.137 139.698 133.113 139.715L133.104 139.721ZM131.745 140.658C131.698 140.689 131.641 140.7 131.586 140.69C131.531 140.68 131.481 140.649 131.448 140.603C130.616 139.457 129.833 139.249 129.821 139.248C129.764 139.234 129.715 139.199 129.685 139.149C129.654 139.099 129.645 139.04 129.658 138.983C129.672 138.926 129.708 138.878 129.757 138.847C129.807 138.817 129.866 138.807 129.923 138.821C129.961 138.829 130.867 139.052 131.804 140.345C131.821 140.369 131.833 140.395 131.84 140.423C131.847 140.452 131.848 140.481 131.844 140.509C131.839 140.538 131.829 140.565 131.814 140.59C131.799 140.615 131.779 140.636 131.755 140.653L131.745 140.658ZM130.148 141.89C130.101 141.92 130.044 141.932 129.989 141.921C129.934 141.911 129.885 141.88 129.852 141.835C129.019 140.688 128.232 140.481 128.224 140.478C128.167 140.465 128.118 140.43 128.088 140.38C128.057 140.33 128.048 140.271 128.061 140.214C128.075 140.158 128.11 140.109 128.16 140.078C128.209 140.048 128.269 140.038 128.325 140.052C128.364 140.061 129.269 140.282 130.206 141.576C130.223 141.599 130.236 141.626 130.243 141.654C130.249 141.682 130.251 141.712 130.246 141.74C130.242 141.769 130.231 141.796 130.216 141.821C130.201 141.846 130.181 141.867 130.158 141.884L130.148 141.89Z" fill="white"/>
<path d="M139.154 88.8992C130.975 94.4469 112.752 101.745 105.75 100.413C103.533 99.99 105.122 96.8892 106.015 94.28C106.376 93.2246 106.624 92.2492 106.459 91.5646C104.604 83.8454 119.548 81.6046 119.548 81.6046C121.929 79.9331 125.288 79.1054 128.702 78.9415C138.041 78.4962 147.805 83.0292 139.154 88.8992Z" fill="#59302A"/>
<path d="M139.154 88.8992C131.162 94.3208 113.578 101.415 106.246 100.491C106.075 100.469 105.91 100.443 105.75 100.413C103.533 99.99 105.122 96.8892 106.015 94.28C109.799 93.0454 114.477 91.8408 116.973 89.47C122.527 84.2023 120.158 81.9831 120.158 81.9831C120.158 81.9831 121.574 81.4092 123.869 80.5854C125.214 80.1015 126.862 79.5315 128.702 78.9415C138.041 78.4962 147.805 83.0292 139.154 88.8992Z" fill="#42211D"/>
<path d="M139.154 88.8992C131.162 94.3208 113.578 101.415 106.246 100.491C107.913 98.3508 101.678 95.4077 103.496 95.3323C110.324 95.0485 129.479 91.4308 127.435 84.9477C126.863 83.1331 123.998 83.1715 123.989 83.1331C123.768 82.1331 123.734 81.2923 123.869 80.5839C125.214 80.1 126.862 79.5315 128.702 78.9415C138.041 78.4962 147.805 83.0292 139.154 88.8992Z" fill="#27140E"/>
<path d="M121.288 149.7C121.14 149.683 120.963 149.662 120.76 149.635C116.246 149.046 98.6531 146.173 92.5046 145.168L90.3677 144.818L75.7431 120.544C74.5377 118.919 73.8654 115.582 74.8439 108.274C75.8223 100.966 79.4446 88.7215 81.6385 85.2969C83.8323 81.8723 86.2677 79.7731 90.5362 79.9577C95.0554 80.1531 103.928 81.0531 108.886 82.4138C112.25 83.3369 116.181 88.4323 115.107 92.7515C114.415 95.5338 112.492 103.059 111.533 106.489C110.575 109.919 110.488 116.764 110.482 118.664C110.482 119.606 111.19 123.471 112.071 127.775C112.966 132.15 114.037 136.978 114.709 139.645C116.26 145.803 118.36 148.476 120.753 149.498C120.93 149.576 121.108 149.642 121.288 149.7Z" fill="#88ABEF"/>
<path d="M120.76 149.635C118.129 149.292 111.06 148.173 104.401 147.102C99.6316 146.332 95.0708 145.589 92.5046 145.168C89.4316 140.719 86.9216 135.614 85.4646 131.198C83.5416 125.373 83.4485 120.747 86.3046 120.404C92.1454 119.702 94.6739 97.9423 94.6739 97.9423C94.6739 97.9423 94.6739 97.9692 94.6739 98.0192L97.8277 83.4038C97.6562 84.2423 94.4885 99.8485 95.52 107.203C95.5204 107.206 95.5204 107.209 95.52 107.212C96.4593 111.52 98.4077 116.03 102.425 117.539C109.446 120.178 112.024 127.684 112.074 127.77C112.97 132.145 114.041 136.975 114.712 139.641C116.265 145.8 118.364 148.472 120.757 149.494C120.756 149.545 120.758 149.59 120.76 149.635Z" fill="#4472C0"/>
<path d="M104.401 147.102C99.6316 146.332 95.0708 145.589 92.5046 145.168C89.4316 140.719 86.9216 135.614 85.4646 131.198C86.95 125.541 89.4646 122.412 89.4646 122.412C89.4646 122.412 94.3008 125.131 99.7846 133.039C102.806 137.398 103.967 142.974 104.401 147.102Z" fill="#234D99"/>
<path d="M53.5985 132.072C55.7785 131.841 57.7523 132.282 59.2008 132.822C62.6623 134.109 68.2977 136.129 71.2777 136.476C74.2577 136.823 84.7669 137.359 88.3254 140.528C91.8838 143.698 94.8362 151.284 100.595 151.476C100.345 145.322 98.9031 134.471 96.8377 131.385C94.7723 128.298 90.7223 120.482 81.3139 118.727C71.9054 116.972 57.4615 119.255 53.5985 132.072Z" fill="#7C0B0B"/>
<path d="M84.7446 109.02C82.5038 108.472 79.5738 110.135 78.9123 112.866C78.2346 115.668 79.5469 116.908 80.8546 117.097C82.72 117.361 85.5469 116.596 86.4446 112.996C87.3423 109.396 84.7446 109.02 84.7446 109.02Z" fill="#F7ECD0"/>
<path d="M86.0108 140.22C87.4861 143.048 88.2523 146.475 88.4862 149.479C91.5008 150.315 98.3115 151.836 98.2792 151.166C92.52 150.974 89.5684 143.39 86.0108 140.22ZM51.2846 131.762C51.2961 131.725 51.3085 131.685 51.32 131.651C51.3033 131.686 51.2914 131.724 51.2846 131.762ZM51.2846 131.762C51.1654 132.655 54.4977 134.987 61.7031 134.231C59.9569 133.642 58.2523 133.02 56.8877 132.512C55.4385 131.973 53.4615 131.531 51.2846 131.762Z" fill="#34020B"/>
<path d="M88.4862 149.479C88.2554 146.475 87.4861 143.048 86.0108 140.22C85.2746 139.565 84.2416 139.022 83.0377 138.571C84.0303 139.543 84.8845 140.648 85.5762 141.853C87.4277 145.065 88.5839 149.65 87.7954 156.045C85.8723 171.661 76.2431 177.312 70.4692 176.815C67.2039 176.533 58.0746 171.849 60.2516 155.169C61.4377 146.085 64.81 140.775 68.4431 137.931C69.2157 137.323 70.0494 136.797 70.9308 136.361C70.1216 136.284 69.4454 136.225 68.9662 136.168C67.5231 136 65.4531 135.438 63.31 134.758C59.1231 137.66 53.4439 143.654 52.1562 154.747C50.3262 170.482 59.4562 178.425 65.4292 179.468C70.4431 180.345 76.4146 179.758 82.3523 171.627C88.29 163.495 88.1539 156.605 88.4785 153.437C88.5971 152.12 88.5997 150.796 88.4862 149.479Z" fill="#070208"/>
<path d="M68.7208 137.966C68.6292 137.955 68.5346 137.943 68.4384 137.929C64.8054 140.775 61.4331 146.083 60.2469 155.168C58.07 171.848 67.1992 176.532 70.4646 176.813C76.2385 177.31 85.8669 171.659 87.7908 156.044C88.5792 149.648 87.4231 145.064 85.5715 141.852C81.8385 138.83 71.6446 138.308 68.7208 137.966ZM83.25 157.035C82.4038 162.542 78.0315 172.15 70.1823 171.099C62.3331 170.048 62.6815 158.8 63.2754 154.361C63.92 149.543 68.4223 139.787 75.9946 140.855C83.5669 141.924 84.0977 151.528 83.25 157.035Z" fill="#FFC267"/>
<path d="M70.9231 136.359C70.0417 136.795 69.208 137.321 68.4354 137.929C68.5315 137.943 68.6262 137.955 68.7177 137.966C71.6408 138.307 81.8354 138.83 85.5685 141.852C84.8768 140.646 84.0226 139.542 83.03 138.569C80.1138 137.473 76.2031 136.913 73.1239 136.579C72.3277 136.492 71.5831 136.421 70.9231 136.359Z" fill="#F7ECD0"/>
<path d="M70.9231 136.359C70.0417 136.795 69.208 137.321 68.4354 137.929C68.5315 137.943 68.6262 137.955 68.7177 137.966C71.6408 138.307 81.8354 138.83 85.5685 141.852C84.8768 140.646 84.0226 139.542 83.03 138.569C80.1138 137.473 76.2031 136.913 73.1239 136.579C72.3277 136.492 71.5831 136.421 70.9231 136.359Z" fill="#C18A4D"/>
<path d="M75.9946 140.855C68.4223 139.787 63.9177 149.543 63.2754 154.361C62.6815 158.8 62.3331 170.048 70.1823 171.099C78.0315 172.15 82.4038 162.542 83.25 157.035C84.0977 151.528 83.5669 141.924 75.9946 140.855ZM78.8154 156C78.2816 159.575 77.1408 161.683 75.8669 162.862C74.4992 165.158 72.2585 167.227 68.7215 166.554C62.9485 165.451 63.7985 156.308 64.1415 154.477C64.5077 152.535 66.5508 143.889 73.0646 144.65C75.7685 144.966 77.1416 146.844 77.7746 149.142C78.7292 150.324 79.3577 152.368 78.8154 156Z" fill="#F47204"/>
<path d="M72.1346 164.142C70.64 163.943 66.2785 162.054 67.2262 154.977C68.1738 147.9 73.3954 147.137 74.8316 147.477C75.6177 147.663 76.8477 148.002 77.7708 149.142C77.1369 146.844 75.7646 144.966 73.0608 144.65C66.5508 143.889 64.5077 152.535 64.1377 154.477C63.7931 156.305 62.9446 165.448 68.7177 166.554C72.2562 167.23 74.4954 165.161 75.8631 162.862C74.5992 164.034 73.2 164.285 72.1346 164.142Z" fill="#070208"/>
<path d="M74.8316 147.477C73.3954 147.137 68.1738 147.9 67.2262 154.977C66.2785 162.054 70.64 163.943 72.1346 164.142C73.2 164.285 74.5962 164.034 75.8669 162.862C77.1377 161.689 78.2816 159.575 78.8154 156C79.3577 152.368 78.7292 150.324 77.7708 149.142C76.8462 148 75.6154 147.663 74.8316 147.477ZM74.0354 158.777C73.0408 158.73 72.5246 157.582 72.77 155.882C72.9685 154.498 73.6554 153.379 74.6931 153.519C75.0869 153.572 75.3662 153.831 75.5546 154.191C75.8846 154.599 75.9785 155.391 75.8508 156.349L75.8415 156.412L75.8369 156.45C75.8029 156.71 75.7515 156.967 75.6831 157.219C75.6274 157.433 75.55 157.641 75.4523 157.839C75.1677 158.402 74.7277 158.809 74.0354 158.777Z" fill="white"/>
<path d="M75.8346 156.45L75.8392 156.412C75.8029 156.684 75.7492 156.952 75.6785 157.217C75.7476 156.965 75.7997 156.709 75.8346 156.45ZM74.4039 158.495C73.4292 158.365 73.1469 157.082 73.4423 155.799C73.7054 154.655 74.2569 153.794 75.0423 153.897C75.2445 153.923 75.428 154.029 75.5523 154.191C75.3639 153.831 75.0846 153.575 74.6908 153.519C73.6554 153.379 72.9685 154.501 72.7677 155.882C72.5223 157.582 73.0385 158.728 74.0331 158.777C74.7254 158.809 75.1654 158.402 75.4446 157.837C75.22 158.278 74.8892 158.56 74.4039 158.495Z" fill="#6F634D"/>
<path d="M75.0423 153.897C74.2569 153.794 73.7054 154.655 73.4423 155.799C73.1469 157.082 73.4292 158.365 74.4039 158.495C74.8892 158.56 75.22 158.278 75.4469 157.837C75.5447 157.639 75.6227 157.431 75.6785 157.217C75.7492 156.952 75.8029 156.684 75.8392 156.412L75.8477 156.349C75.9754 155.391 75.8823 154.599 75.5523 154.191C75.428 154.029 75.2445 153.923 75.0423 153.897Z" fill="#070208"/>
<path d="M92.0139 127.282C82.2577 121.647 75.3546 125.428 73.6823 127.311C71.5885 129.669 70.7746 132.234 73.13 136.579C72.3277 136.492 71.5831 136.422 70.9262 136.36C70.1169 136.283 69.4408 136.223 68.9615 136.167C67.5177 135.998 65.4485 135.437 63.3054 134.756C62.7731 134.586 62.2362 134.41 61.7031 134.231C59.9569 133.642 58.2523 133.02 56.8877 132.512C55.4385 131.974 53.4646 131.531 51.2846 131.762C51.2961 131.725 51.3085 131.685 51.32 131.651C53.3292 125.123 58.0939 121.35 63.5254 119.458V119.463C62.5539 120.715 61.8577 122.172 62.47 122.322C63.9677 122.685 68.7777 118.768 75.3016 117.964C76.4363 118.033 77.5663 118.166 78.6862 118.362C78.7916 118.379 78.8954 118.398 78.9992 118.418C85.5654 119.642 89.5208 123.82 92.0139 127.282Z" fill="#88ABEF"/>
<path d="M73.6823 127.308C71.5885 129.666 70.7746 132.231 73.13 136.576C76.2069 136.91 80.12 137.47 83.0362 138.566C84.2392 139.018 85.2731 139.56 86.0092 140.215C89.5669 143.385 92.5185 150.969 98.2777 151.162C98.0262 145.012 96.5854 134.157 94.52 131.07C93.8962 130.138 93.0908 128.775 92.0123 127.277C82.2577 121.647 75.3539 125.428 73.6823 127.308Z" fill="#950B0B"/>
<path d="M73.6823 127.308C71.5885 129.666 70.7746 132.231 73.13 136.576C76.2069 136.91 80.12 137.47 83.0362 138.566C84.2392 139.018 85.2731 139.56 86.0092 140.215C89.5669 143.385 92.5185 150.969 98.2777 151.162C98.0262 145.012 96.5854 134.157 94.52 131.07C93.8962 130.138 93.0908 128.775 92.0123 127.277C82.2577 121.647 75.3539 125.428 73.6823 127.308Z" fill="#234D99"/>
<path d="M62.4669 122.322C63.9631 122.684 68.7746 118.769 75.2977 117.964C75.4039 117.95 75.5108 117.938 75.6185 117.927C69.8092 116.816 67.0923 116.785 65.2462 117.817C64.7077 118.117 64.0739 118.755 63.5254 119.458C62.5515 120.711 61.8531 122.172 62.4669 122.322Z" fill="white"/>
<path d="M78.6846 118.362L78.3769 118.383C69.3608 118.942 67.6292 122.306 63.8915 122.768C60.2285 123.217 63.3954 119.614 63.5246 119.467C62.5531 120.718 61.8569 122.176 62.4692 122.325C63.9669 122.688 68.7769 118.772 75.3008 117.968C76.4352 118.036 77.5649 118.167 78.6846 118.362Z" fill="#4472C0"/>
<path d="M92.9438 82.3462C91.1746 83.5223 82.2669 106.54 81.1669 107.962C80.6169 108.673 78.99 110.367 78.2677 112.44C77.5454 114.513 77.7292 116.965 80.3285 117.933C86.2908 120.153 89.2838 115.247 89.8408 112.732C90.25 110.885 97.3554 83.3469 97.0846 82.8992C96.8139 82.4515 93.6692 81.8646 92.9438 82.3462Z" fill="white"/>
<path d="M84.3892 109.699C82.5285 109.245 80.1669 110.645 79.5431 112.895C78.8054 115.567 80.07 116.253 81.1585 116.406C82.7077 116.625 85.0577 115.99 85.8015 113C86.5454 110.01 84.3892 109.699 84.3892 109.699Z" fill="#0E50CC"/>
<path d="M158.547 102.715C158.595 103.323 158.458 104.462 157.335 104.408C156.211 104.354 144.873 104.425 141.94 104.132C139.007 103.838 125.433 102.892 122.501 102.576C121.087 102.422 117.975 102.288 117.41 101.353C116.845 100.418 117.92 92.5839 118.354 91.8969C118.437 91.7639 118.637 91.6354 118.93 91.5069C121.328 92.0623 125.528 92.4162 127.215 92.7262C129.802 93.2046 147.693 95.4292 150.934 95.4239C153.78 95.4185 158.018 93.7731 159.696 92.3631C159.782 94.1677 158.503 102.165 158.547 102.715Z" fill="#070208"/>
<path d="M159.761 91.7162C158.082 93.1262 153.844 94.7708 150.998 94.7762C147.757 94.7823 129.867 92.5577 127.28 92.0785C125.592 91.7708 121.392 91.4146 118.995 90.8592C120.754 90.09 125.903 89.4485 129.585 89.3446C133.878 89.2269 144.692 90.8531 145.708 90.5754C146.724 90.2977 149.682 89.2677 151.312 89.4323C152.942 89.5969 159.218 91.0477 159.681 91.3646C159.727 91.3931 159.751 91.5177 159.761 91.7162Z" fill="#070208"/>
<path d="M156 86.8462C155.981 86.9031 155.962 86.9608 155.941 87.0177C155.941 87.0231 155.937 87.0285 155.935 87.0338C155.917 87.0823 155.899 87.1315 155.879 87.1792C155.873 87.1962 155.867 87.2131 155.86 87.23C155.841 87.2792 155.82 87.3285 155.8 87.3777C155.78 87.4269 155.75 87.4954 155.723 87.5531C155.696 87.6108 155.678 87.6531 155.654 87.7069C155.648 87.72 155.642 87.7346 155.635 87.7485C155.611 87.7977 155.586 87.8469 155.558 87.8969L155.546 87.9192C155.519 87.9731 155.491 88.0262 155.462 88.08C155.401 88.1954 155.336 88.3108 155.269 88.4246C155.235 88.4823 155.201 88.5392 155.166 88.5962C155.089 88.7239 155.006 88.8515 154.921 88.9808C154.855 89.0769 154.79 89.1723 154.722 89.2677L154.712 89.2815L154.618 89.4092C154.53 89.5292 154.438 89.65 154.344 89.7692C154.249 89.8885 154.171 89.9869 154.08 90.0946C154.043 90.1392 154.003 90.1831 153.968 90.2277C153.951 90.2462 153.935 90.2654 153.918 90.2846C153.88 90.3285 153.841 90.3715 153.805 90.4146C153.712 90.5208 153.617 90.6262 153.519 90.73L153.373 90.8839L153.225 91.0377C153.175 91.0892 153.125 91.14 153.075 91.1915C153.024 91.2431 152.974 91.2931 152.921 91.3454C152.868 91.3977 152.818 91.4469 152.767 91.4992C152.508 91.7492 152.243 91.9931 151.975 92.23L151.832 92.3546C151.715 92.4562 151.601 92.5569 151.478 92.6562C151.426 92.6992 151.374 92.7438 151.321 92.7869C151.268 92.83 151.216 92.8731 151.167 92.9154C151.118 92.9577 151.052 93.01 150.994 93.0554L150.828 93.1877C150.768 93.2354 150.708 93.2823 150.648 93.3292C150.589 93.3762 150.547 93.4062 150.495 93.4454L150.407 93.5131C150.33 93.5708 150.253 93.6277 150.176 93.6846L150.148 93.7062L149.995 93.8192C149.88 93.9039 149.766 93.9867 149.653 94.0677L149.503 94.1754C149.395 94.2533 149.287 94.3303 149.179 94.4062C149.126 94.4439 149.073 94.4831 149.019 94.5169C148.895 94.6031 148.771 94.6872 148.649 94.7692L148.426 94.9177L148.391 94.9415L148.237 95.04C147.834 95.3046 147.449 95.5454 147.096 95.7592C145.848 96.5169 135.302 104.159 135.302 104.159C137.84 120.345 137.569 124.594 137.569 124.594C130.239 129.612 127.2 125.272 127.2 125.272L125.954 122.385L124.154 118.273C120.042 107.427 118.832 103.075 119.702 100.508C121.595 94.9238 130.112 83.8762 133.021 81.2485C133.445 80.8639 130.236 77.9315 130.236 77.9315L139.552 80.5815L154.356 76.3508C154.356 76.3508 157.822 81.3708 156 86.8462Z" fill="#663E36"/>
<path d="M156 86.8462C155.981 86.9031 155.962 86.9608 155.941 87.0177C155.941 87.0231 155.937 87.0285 155.935 87.0338C155.917 87.0823 155.899 87.1315 155.879 87.1792C155.873 87.1962 155.867 87.2131 155.86 87.23C155.841 87.2792 155.82 87.3285 155.8 87.3777C155.78 87.4269 155.75 87.4954 155.723 87.5531C155.696 87.6108 155.678 87.6531 155.654 87.7069C155.648 87.72 155.642 87.7346 155.635 87.7485C155.611 87.7977 155.586 87.8469 155.558 87.8969L155.546 87.9192C155.519 87.9731 155.491 88.0262 155.462 88.08C155.401 88.1954 155.336 88.3108 155.269 88.4246C155.235 88.4823 155.201 88.5392 155.166 88.5962C155.089 88.7239 155.006 88.8515 154.921 88.9808C154.855 89.0769 154.79 89.1723 154.722 89.2677L154.712 89.2815L154.618 89.4092C154.53 89.5292 154.438 89.65 154.344 89.7692C154.249 89.8885 154.171 89.9869 154.08 90.0946C154.043 90.1392 154.003 90.1831 153.968 90.2277C153.951 90.2462 153.935 90.2654 153.918 90.2846C153.88 90.3285 153.841 90.3715 153.805 90.4146C153.712 90.5208 153.617 90.6262 153.519 90.73L153.373 90.8839L153.225 91.0377C153.175 91.0892 153.125 91.14 153.075 91.1915C153.024 91.2431 152.974 91.2931 152.921 91.3454C152.868 91.3977 152.818 91.4469 152.767 91.4992C152.508 91.7492 152.243 91.9931 151.975 92.23L151.832 92.3546C151.715 92.4562 151.601 92.5569 151.478 92.6562C151.426 92.6992 151.374 92.7438 151.321 92.7869C151.268 92.83 151.216 92.8731 151.167 92.9154C151.118 92.9577 151.052 93.01 150.994 93.0554L150.828 93.1877C150.768 93.2354 150.708 93.2823 150.648 93.3292C150.589 93.3762 150.547 93.4062 150.495 93.4454L150.407 93.5131C150.33 93.5708 150.253 93.6277 150.176 93.6846L150.148 93.7062L149.995 93.8192C149.88 93.9039 149.766 93.9867 149.653 94.0677L149.503 94.1754C149.395 94.2533 149.287 94.3303 149.179 94.4062C149.126 94.4439 149.073 94.4831 149.019 94.5169C148.895 94.6031 148.771 94.6872 148.649 94.7692L148.426 94.9177L148.391 94.9415L148.237 95.04C147.834 95.3046 147.449 95.5454 147.096 95.7592C145.848 96.5169 135.302 104.159 135.302 104.159C135.302 104.173 135.307 104.188 135.308 104.202C137.84 120.356 137.569 124.594 137.569 124.594C130.239 129.612 127.2 125.272 127.2 125.272L125.954 122.385C128.278 118.837 132.031 112.13 131.078 107.016C129.724 99.7262 137.332 96.6754 139.463 89.3508C141.594 82.0262 133.403 82.7708 133.403 82.7708C133.403 82.7708 134.666 81.4631 136.882 79.8238L139.554 80.5846L154.358 76.3546C154.358 76.3546 157.822 81.3708 156 86.8462Z" fill="#59302A"/>
<path d="M156 86.8462C155.981 86.9031 155.962 86.9608 155.941 87.0177C155.941 87.0231 155.937 87.0285 155.935 87.0338C155.917 87.0823 155.899 87.1315 155.879 87.1792C155.873 87.1962 155.867 87.2131 155.86 87.23C155.841 87.2792 155.82 87.3285 155.8 87.3777C155.78 87.4269 155.75 87.4954 155.723 87.5531C155.696 87.6108 155.678 87.6531 155.654 87.7069C155.648 87.72 155.642 87.7346 155.635 87.7485C155.611 87.7977 155.586 87.8469 155.558 87.8969L155.546 87.9192C155.519 87.9731 155.491 88.0262 155.462 88.08C155.401 88.1954 155.336 88.3108 155.269 88.4246C155.235 88.4823 155.201 88.5392 155.166 88.5962C155.089 88.7239 155.006 88.8515 154.921 88.9808C154.855 89.0769 154.79 89.1723 154.722 89.2677L154.712 89.2815L154.618 89.4092C154.53 89.5292 154.438 89.65 154.344 89.7692C154.249 89.8885 154.171 89.9869 154.08 90.0946C154.043 90.1392 154.003 90.1831 153.968 90.2277C153.951 90.2462 153.935 90.2654 153.918 90.2846C153.88 90.3285 153.841 90.3715 153.805 90.4146C153.712 90.5208 153.617 90.6262 153.519 90.73L153.373 90.8839L153.225 91.0377C153.175 91.0892 153.125 91.14 153.075 91.1915C153.024 91.2431 152.974 91.2931 152.921 91.3454C152.868 91.3977 152.818 91.4469 152.767 91.4992C152.508 91.7492 152.243 91.9931 151.975 92.23L151.832 92.3546C151.715 92.4562 151.601 92.5569 151.478 92.6562C151.426 92.6992 151.374 92.7438 151.321 92.7869C151.268 92.83 151.216 92.8731 151.167 92.9154C151.118 92.9577 151.052 93.01 150.994 93.0554L150.828 93.1877C150.768 93.2354 150.708 93.2823 150.648 93.3292C150.589 93.3762 150.547 93.4062 150.495 93.4454L150.407 93.5131C150.33 93.5708 150.253 93.6277 150.176 93.6846L150.148 93.7062L149.995 93.8192C149.88 93.9039 149.766 93.9867 149.653 94.0677L149.503 94.1754C149.395 94.2533 149.287 94.3303 149.179 94.4062C149.126 94.4439 149.073 94.4831 149.019 94.5169C148.895 94.6031 148.771 94.6872 148.649 94.7692L148.426 94.9177L148.391 94.9415L148.237 95.04C147.834 95.3046 147.449 95.5454 147.096 95.7592C145.848 96.5169 135.302 104.159 135.302 104.159C134.477 98.64 147.345 95.0577 147.434 89.0392C147.522 83.0208 140.325 82.2415 140.325 82.2415C140.325 82.2415 141.764 80.9869 144.832 79.0808L154.342 76.3631C154.342 76.3631 157.822 81.3708 156 86.8462Z" fill="#42211D"/>
<path d="M156 86.8462C153.765 82.8239 144.692 82.0523 144.692 82.0523C144.692 82.0523 147.582 79.6369 150.855 77.35L154.352 76.35C154.352 76.35 157.822 81.3708 156 86.8462Z" fill="#27140E"/>
<path d="M122.077 81.1538C122.077 81.1538 120.908 84.4292 131.315 83.0192C141.722 81.6092 156.815 81.9939 156.815 81.9939C156.815 81.9939 155.963 76.9869 154.483 76.9554C153.003 76.9239 121.988 77.6685 122.077 81.1538Z" fill="white"/>
<path d="M81.3454 89.8023C82.2139 87.5323 83.1915 85.2262 84.9146 83.5092C86.6377 81.7923 91.4438 80.4823 91.5538 81.6269C91.5646 82.8323 84.9569 81.0454 81.1946 92.1815C79.6731 96.6838 77.6854 101.889 76.3192 106.521C77.9154 100.905 79.2485 95.2854 81.3454 89.8023Z" fill="#C5DBFF"/>
<path d="M156.492 79.5885C156.492 79.5885 151.532 77.9531 144.617 80.0662C137.702 82.1792 126.002 81.1554 122.835 79.7192C122.835 79.7192 122.128 77.0108 120.315 72.4115C119.86 71.2577 119.335 69.9839 118.735 68.6039C115.739 61.7231 112.849 54.0969 113.882 51.0277C113.882 51.0277 113.758 50.91 115.194 49.8669C116.63 48.8239 118.239 48.2839 118.239 48.2839C118.239 48.2839 118.302 50.2346 118.815 52.13C119.204 53.5646 119.851 54.9677 120.925 55.4662C123.418 56.62 124.706 53.9892 125.364 50.9377C125.938 48.2839 130.385 45.0915 131.532 44.3015C131.703 44.1839 131.8 44.1208 131.8 44.1208C131.8 44.1208 136.292 44.2969 139.85 45.2162L139.934 45.2377C140.562 45.3977 141.179 45.5991 141.78 45.8408L141.965 45.9177C141.965 45.9177 143.154 57.2869 145.538 59.0938C147.923 60.9008 151.177 62.4015 152.453 67.1085C153.729 71.8154 156.06 77.2954 156.492 79.5885Z" fill="#6D378F"/>
<path d="M156.492 79.5885C156.492 79.5885 151.532 77.9531 144.617 80.0662C137.702 82.1792 126.002 81.1554 122.835 79.7192C122.835 79.7192 122.128 77.0108 120.315 72.4115C134.264 70.25 135.144 56.6423 135.17 51.3746C135.196 46.1069 139.319 45.0831 139.852 45.2139L139.936 45.2354C140.343 45.3477 141.222 45.6454 141.782 45.8385L141.968 45.9154C141.968 45.9154 142.625 52.2023 143.942 56.17C144.395 57.5385 144.928 58.6315 145.54 59.0931C147.925 60.9015 151.178 62.4008 152.455 67.1077C153.132 69.6015 154.102 72.3115 154.931 74.6508C155.666 76.7269 156.289 78.51 156.492 79.5885Z" fill="#582279"/>
<path d="M154.932 74.6515C149.184 77.1131 142.975 77.5215 134.812 79.1223C124.649 81.1154 123.545 80.0308 122.638 78.2385C121.732 76.4462 139.231 65.7554 139.953 63.8462C140.675 61.9369 137.988 56.8085 137.988 56.8085C137.988 56.8085 140.445 56.5054 143.942 56.1731C144.396 57.5415 144.929 58.6346 145.541 59.0962C147.925 60.9046 151.179 62.4038 152.455 67.1108C153.132 69.6023 154.103 72.3123 154.932 74.6515Z" fill="#42115F"/>
<path d="M115.358 78.0669C115.825 78.1 125.311 81.6823 125.641 81.4769C125.971 81.2715 126.303 79.2546 125.977 79.2239C125.651 79.1931 115.904 75.8939 115.904 75.8939L115.358 78.0669Z" fill="#070208"/>
<path d="M125.868 81.5106C126.431 81.488 126.867 80.9624 126.842 80.3367C126.817 79.711 126.34 79.2222 125.777 79.2448C125.213 79.2674 124.777 79.793 124.802 80.4187C124.827 81.0444 125.304 81.5333 125.868 81.5106Z" fill="#070208"/>
<path d="M130.649 74.9538C130.347 76.04 128.304 77.5277 128.304 77.5277C128.304 77.5277 127.58 78.5423 126.5 78.9515C126.215 79.0592 125.408 79.2592 125.164 79.2639C124.295 79.28 123.454 80.2777 124.635 81.2485C124.635 81.2485 124.327 81.8639 123.82 82.0623C123.313 82.2608 122.638 82.3369 122.018 81.8215C122.018 81.8215 120.852 82.3746 120.326 81.89C120.326 81.89 119.321 82.0015 118.53 81.0438C118.53 81.0438 117.434 80.9523 117.091 80.0146C116.924 79.5531 117.519 76.3931 117.79 76.2539C118.061 76.1146 118.89 75.1 125.848 74.1092C126.144 74.0667 126.452 74.0249 126.771 73.9838C127.848 73.8415 128.654 73.8062 129.248 73.8515C130.505 73.9485 130.804 74.3985 130.649 74.9538Z" fill="#FFC267"/>
<path d="M130.649 74.9538C130.347 76.04 128.304 77.5277 128.304 77.5277C128.304 77.5277 127.58 78.5423 126.5 78.9515C126.215 79.0592 125.408 79.2592 125.164 79.2639C125.164 79.2639 123.454 80.2777 124.635 81.2485C124.635 81.2485 124.327 81.8639 123.82 82.0623C123.82 82.0623 123.827 81.2023 123.827 80.6308C123.827 77.58 126.82 78.2339 127.32 76.82C127.82 75.4062 125.823 74.1615 125.823 74.1615C125.823 74.1615 125.829 74.1439 125.844 74.1131C126.14 74.0705 126.448 74.0287 126.767 73.9877C127.844 73.8454 128.65 73.81 129.245 73.8554C129.468 73.9823 129.706 74.1331 129.957 74.31C130.217 74.4903 130.451 74.7071 130.649 74.9538Z" fill="#D89A47"/>
<path d="M162.082 65.4508C162.03 65.7534 161.937 66.0475 161.805 66.3246C158.795 72.6138 140.671 77.0169 137.618 77.1869C134.566 77.3569 133.818 76.0485 133.818 76.0485C133.754 76.0762 129.672 77.8808 128.832 77.9815C127.993 78.0823 128.305 77.5269 128.305 77.5269C128.672 73.9785 125.824 74.1608 125.824 74.1608C125.824 74.1608 125.735 74.0992 125.67 73.8C125.65 73.7084 125.636 73.6157 125.628 73.5223C125.572 72.9839 130.675 70.6346 130.675 70.6346C130.675 69.4623 132.532 68.5715 134.888 67.6108C137.245 66.65 143.958 63.6815 143.958 63.6815L143.939 63.6646C143.792 63.5362 142.785 62.6392 141.535 61.2992C138.848 58.4223 135.034 53.5015 136.193 49.7492C136.795 47.8 137.672 46.7392 138.559 46.1869C140.242 45.14 141.968 45.9146 141.968 45.9146C146.289 47.0677 163.216 58.9139 162.082 65.4508Z" fill="white"/>
<path d="M143.939 63.6646C143.792 63.5362 142.785 62.6392 141.535 61.2992C138.848 58.4223 135.034 53.5015 136.193 49.7492C136.795 47.8 137.672 46.7392 138.559 46.1869C138.559 46.1869 135.713 49.6338 137.182 53.2454C138.652 56.8569 147.123 61.5262 151.437 61.3454C154.495 61.2169 147.988 62.7569 143.939 63.6646Z" fill="#D2D7DB"/>
<path d="M154.107 62.5385C148.492 62.2885 143.958 63.6815 143.958 63.6815C143.958 63.6815 142.889 62.75 141.535 61.2969C144.413 62.7323 148.989 60.7708 152.227 61.4585C155.465 62.1462 154.107 62.5385 154.107 62.5385ZM133.818 76.0485C133.818 76.0485 132.693 72.0269 131.098 71.2531C131.098 71.2531 130.592 71.0692 131.39 72.3062C132.188 73.5431 130.852 77.2977 130.852 77.2977L133.818 76.0485ZM128.832 77.9823C127.985 78.0846 128.304 77.5277 128.304 77.5277C128.671 73.9792 125.823 74.1615 125.823 74.1615C125.823 74.1615 125.735 74.1 125.669 73.8008C129.403 73.16 128.832 77.9823 128.832 77.9823Z" fill="#AEB6B7"/>
<path d="M162.082 65.4508C162.03 65.7534 161.937 66.0475 161.805 66.3246C158.795 72.6138 140.671 77.0169 137.618 77.1869C134.566 77.3569 133.818 76.0485 133.818 76.0485C133.818 76.0485 136.984 76.1777 141.24 73.8562C145.26 71.6638 154.747 71.2908 162.082 65.4508Z" fill="#D2D7DB"/>
<path d="M170.104 138.408C169.682 138.688 153.166 140.645 147.473 141.076C145.121 136.857 145.111 130.407 145.808 126.241C146.5 122.115 148.296 118.022 151.554 115.399C154.594 112.952 158.589 112.168 162.46 112.736C167.961 116.142 169.963 122.365 170.218 126.852C170.53 132.348 170.588 138.088 170.104 138.408Z" fill="#234D99"/>
<path d="M114.992 76.2385C114.709 76.1162 114.486 77.1715 114.745 77.2623C115.005 77.3531 121.832 78.9746 122.112 79.2115C122.415 79.4669 123.144 79.8269 123.317 79.1092C123.471 78.4723 122.965 78.1246 122.324 78.3354C120.769 78.0431 115.348 76.3931 114.992 76.2385Z" fill="#060B31"/>
<path d="M133.408 44.2262C133.408 44.2262 129.268 54.1754 126.992 55.8985C124.715 57.6215 118.93 57.1062 118.815 52.13C119.204 53.5646 119.851 54.9677 120.925 55.4662C123.418 56.62 124.706 53.9892 125.364 50.9377C125.938 48.2839 130.989 44.9269 132.137 44.1392C132.138 44.1354 133.408 44.2262 133.408 44.2262Z" fill="#582279"/>
<path d="M129.048 43.18C129.048 43.18 124.593 48.6538 121.672 50.8108C121.672 50.8108 125.414 51.3231 127.091 54.9769C127.091 54.9769 127.342 56.4254 128.438 52.0677C129.535 47.71 132.968 43.9538 132.968 43.9538C132.968 43.9538 129.852 43.0154 129.048 43.18ZM121.672 50.8108L119.122 46.8346C119.122 46.8346 116.905 48.4708 116.825 48.5754C115.973 49.6854 117.049 54.1908 117.423 53.63C117.797 53.0692 118.932 50.2308 121.672 50.8108Z" fill="white"/>
<path d="M156.431 82.01C156.438 82.0677 156.445 82.1246 156.452 82.1831C156.445 82.1254 156.437 82.0677 156.43 82.0108L156.431 82.01Z" fill="#42211D"/>
<path d="M111.478 44.5008C110.491 43.7169 109.806 42.6159 109.538 41.3846C108.908 38.5085 107.605 31.9131 108.447 29.9323C109.534 27.3731 110.548 27.2646 113.832 26.9323C117.115 26.6 120.646 26.5223 122.21 29.0762C123.774 31.63 121.973 41.7623 126.144 42.3762C130.315 42.99 130.655 37.9469 130.655 37.9469C130.655 37.9469 126.578 23.6669 123.665 23.0023C120.752 22.3377 116.924 21.8485 114.505 22.5554C112.087 23.2623 108.418 24.7031 107.89 25.1662C107.362 25.6292 104.659 27.7431 105.121 34.1138C105.582 40.4846 106.263 45.6231 110.62 44.9385C110.62 44.9385 111.198 44.8454 111.589 44.5839C111.581 44.58 111.543 44.5531 111.478 44.5008Z" fill="black"/>
<path d="M131.611 38.2408C131.158 39.8808 130.375 40.6962 129.668 40.8862C129.668 40.8862 126.494 41.8385 125.99 34.3869C125.486 26.9354 122.538 21.99 109.505 25.03C109.505 25.03 105.973 25.8177 105.132 31.1531C105.132 31.1531 105.055 30.1269 105.362 28.6146C105.493 27.9679 105.673 27.3322 105.901 26.7131C105.973 26.5169 106.055 26.3177 106.138 26.1162C106.989 24.1162 108.543 21.8669 111.376 20.0292C118.132 15.6446 128.998 19.6262 131.081 28.3108C131.153 28.6123 131.221 28.9079 131.283 29.1977C132.212 33.4615 132.124 36.3846 131.611 38.2408Z" fill="#6D378F"/>
<path d="M131.611 38.2408C131.158 39.8808 130.375 40.6962 129.668 40.8862C129.668 40.8862 126.494 41.8385 125.99 34.3869C125.486 26.9354 122.538 21.99 109.505 25.03C109.505 25.03 105.973 25.8177 105.132 31.1531C105.132 31.1531 105.055 30.1269 105.362 28.6146C105.493 27.9679 105.673 27.3322 105.901 26.7131C105.945 26.502 106.025 26.3001 106.138 26.1162C106.57 25.3538 107.768 24.0592 111.036 23.4077C115.841 22.4492 121.585 22.0654 124.31 25.1677C126.532 27.6977 129.509 31.2823 131.283 29.1977C132.212 33.4615 132.124 36.3846 131.611 38.2408Z" fill="#582279"/>
<path d="M118.319 26.8638C118.319 26.8638 114.96 27.1554 113.578 29.1138C112.195 31.0723 107.692 30.3315 107.846 28.5277C107.991 26.7631 109.959 25.8892 118.319 26.8638Z" fill="#72120C"/>
<path d="M131.611 38.2408C131.158 39.8808 130.375 40.6962 129.668 40.8862C129.668 40.8862 126.494 41.8385 125.99 34.3869C125.486 26.9354 122.538 21.99 109.505 25.03C109.505 25.03 105.973 25.8177 105.132 31.1531C105.132 31.1531 104.656 30.4431 105.362 28.6146C106.066 26.7869 106.645 24.4915 112.504 23.7762C118.363 23.0608 122.34 23.2446 124.757 26.8238C127.174 30.4031 126.244 37.68 128.249 39.3838C129.624 40.5508 130.928 39.2023 131.611 38.2408Z" fill="white"/>
<path d="M130.264 60.4223C130.264 60.4223 130.61 60.8069 131.462 60.85C132.313 60.8931 136.251 61.1239 136.625 60.5292C137.087 59.8031 136.709 58.6677 135.967 58.7885C135.225 58.9092 130.264 60.4223 130.264 60.4223Z" fill="#42115F"/>
<path d="M136.069 58.6565L130.197 58.8923L130.259 60.4364L136.131 60.2006L136.069 58.6565Z" fill="white"/>
<path d="M81.9231 73.3308C81.65 73.3108 81.2646 73.6485 80.21 73.7092C79.1554 73.77 77.6115 73.94 75.2469 73.6477C74.4339 73.5485 73.41 73.3969 73.2392 73.3515C73.2392 72.9569 72.3423 72.7462 72.2039 73.4162C72.0654 74.0862 72.8631 74.2969 73.2039 73.8777C73.3223 73.8777 74.6077 74.1085 75.3254 74.1954C77.5562 74.4608 80.1908 74.3962 80.6461 74.3846C81.1015 74.3731 82.2062 74.24 82.1485 74.2308C82.0908 74.2215 81.9231 73.3308 81.9231 73.3308Z" fill="#060B31"/>
<path d="M27.6092 77.4085C29.4862 89.0331 44.3077 92.8315 51.5408 83.54C56.9123 76.64 61.6946 66.5446 57.0708 55.2938C48.5131 34.4877 24.8785 58.9569 27.5269 76.8769C27.5541 77.0564 27.5815 77.2336 27.6092 77.4085Z" fill="#B2B4DE"/>
<path d="M110.107 36.8331C110.341 36.8331 110.532 36.479 110.532 36.0423C110.532 35.6056 110.341 35.2515 110.107 35.2515C109.872 35.2515 109.682 35.6056 109.682 36.0423C109.682 36.479 109.872 36.8331 110.107 36.8331Z" fill="#72120C"/>
<path d="M115.716 36.5615C115.951 36.5615 116.141 36.2075 116.141 35.7708C116.141 35.334 115.951 34.98 115.716 34.98C115.482 34.98 115.292 35.334 115.292 35.7708C115.292 36.2075 115.482 36.5615 115.716 36.5615Z" fill="#72120C"/>
<path d="M114.855 32.7185C114.809 32.6008 114.942 32.4831 115.057 32.4308C115.422 32.2662 116.356 31.9477 116.781 32.7462C117.131 33.4038 116.781 33.3015 116.716 33.2C116.618 33.0423 116.372 32.7154 116.143 32.6185C115.615 32.3931 114.959 32.9877 114.855 32.7185ZM108.606 33.8354C108.509 33.7546 108.568 33.5877 108.643 33.4862C108.884 33.1654 109.546 32.4346 110.305 32.9269C110.929 33.3331 110.573 33.4138 110.468 33.3554C110.305 33.2654 109.929 33.0985 109.685 33.1246C109.112 33.1838 108.828 34.0208 108.606 33.8354Z" fill="#72120C"/>
<path d="M112.253 35.81C112.317 36.2748 112.343 36.7441 112.33 37.2131C112.33 37.4439 112.312 37.6746 112.301 37.9108C112.29 38.1469 112.258 38.3723 112.224 38.61C112.205 38.7277 112.185 38.8408 112.157 38.97C112.152 38.9977 112.138 39.0408 112.126 39.08L112.117 39.11L112.112 39.1246C112.112 39.1246 112.108 39.1385 112.112 39.1315C112.117 39.1193 112.12 39.1063 112.12 39.0931C112.121 39.0777 112.118 39.0623 112.113 39.0477C112.113 39.0408 112.113 39.0369 112.108 39.0323C112.102 39.0277 112.101 39.0223 112.102 39.0215C112.102 39.0208 112.094 39.0138 112.096 39.0162L112.101 39.0208C112.126 39.0442 112.155 39.0639 112.185 39.0792C112.228 39.1009 112.272 39.1199 112.317 39.1362C112.412 39.17 112.515 39.2015 112.619 39.2292C113.062 39.3313 113.512 39.3966 113.965 39.4246L113.97 39.4554C113.511 39.5347 113.042 39.5399 112.581 39.4708C112.465 39.4528 112.351 39.4271 112.238 39.3938C112.123 39.364 112.014 39.3132 111.916 39.2438C111.889 39.2251 111.866 39.2 111.85 39.1707C111.834 39.1415 111.825 39.1088 111.824 39.0754C111.824 39.0578 111.828 39.0404 111.834 39.0238L111.845 38.9831C111.854 38.9566 111.861 38.9296 111.866 38.9023C111.889 38.7908 111.905 38.6762 111.922 38.5623C111.988 38.1008 112.037 37.6446 112.085 37.1846L112.22 35.8L112.253 35.81ZM112.497 42.0431C113.53 42.0015 115.312 41.7354 116.702 40.5085C116.712 40.499 116.724 40.4936 116.738 40.4934C116.751 40.4933 116.764 40.4984 116.773 40.5077C116.783 40.517 116.788 40.5296 116.788 40.5429C116.788 40.5562 116.783 40.569 116.774 40.5785C116.025 41.4392 114.498 42.7615 112.472 42.3046C112.441 42.2977 112.413 42.2795 112.394 42.2534C112.375 42.2273 112.366 42.1951 112.369 42.1629C112.372 42.1307 112.386 42.1008 112.41 42.0787C112.434 42.0566 112.465 42.0439 112.497 42.0431Z" fill="#D89A47"/>
<path d="M117.163 37.3546C117.268 37.3546 117.354 37.2692 117.354 37.1638C117.354 37.0585 117.268 36.9731 117.163 36.9731C117.058 36.9731 116.972 37.0585 116.972 37.1638C116.972 37.2692 117.058 37.3546 117.163 37.3546Z" fill="#D89A47"/>
<path d="M110.298 38.0246C110.404 38.0246 110.489 37.9392 110.489 37.8339C110.489 37.7285 110.404 37.6431 110.298 37.6431C110.193 37.6431 110.108 37.7285 110.108 37.8339C110.108 37.9392 110.193 38.0246 110.298 38.0246Z" fill="#D89A47"/>
<path d="M117.936 37.5354C118.011 37.5354 118.072 37.4748 118.072 37.4C118.072 37.3252 118.011 37.2646 117.936 37.2646C117.861 37.2646 117.801 37.3252 117.801 37.4C117.801 37.4748 117.861 37.5354 117.936 37.5354Z" fill="#D89A47"/>
<path d="M109.148 37.49C109.222 37.49 109.283 37.4294 109.283 37.3546C109.283 37.2798 109.222 37.2192 109.148 37.2192C109.073 37.2192 109.012 37.2798 109.012 37.3546C109.012 37.4294 109.073 37.49 109.148 37.49Z" fill="#D89A47"/>
<path d="M109.527 39.1608C109.602 39.1608 109.662 39.1002 109.662 39.0254C109.662 38.9506 109.602 38.89 109.527 38.89C109.452 38.89 109.392 38.9506 109.392 39.0254C109.392 39.1002 109.452 39.1608 109.527 39.1608Z" fill="#D89A47"/>
<path d="M117.936 36.8792C118.011 36.8792 118.072 36.8186 118.072 36.7438C118.072 36.6691 118.011 36.6085 117.936 36.6085C117.861 36.6085 117.801 36.6691 117.801 36.7438C117.801 36.8186 117.861 36.8792 117.936 36.8792Z" fill="#D89A47"/>
<path d="M116.47 38.1346C116.575 38.1346 116.661 38.0492 116.661 37.9439C116.661 37.8385 116.575 37.7531 116.47 37.7531C116.365 37.7531 116.279 37.8385 116.279 37.9439C116.279 38.0492 116.365 38.1346 116.47 38.1346Z" fill="#D89A47"/>
<path d="M117.524 38.4846C117.659 38.4846 117.768 38.3754 117.768 38.2408C117.768 38.1061 117.659 37.9969 117.524 37.9969C117.389 37.9969 117.28 38.1061 117.28 38.2408C117.28 38.3754 117.389 38.4846 117.524 38.4846Z" fill="#D89A47"/>
<path d="M109.527 38.3785C109.662 38.3785 109.771 38.2693 109.771 38.1346C109.771 37.9999 109.662 37.8908 109.527 37.8908C109.392 37.8908 109.283 37.9999 109.283 38.1346C109.283 38.2693 109.392 38.3785 109.527 38.3785Z" fill="#D89A47"/>
<path d="M118.469 38.0777C118.604 38.0777 118.713 37.9685 118.713 37.8339C118.713 37.6992 118.604 37.59 118.469 37.59C118.335 37.59 118.225 37.6992 118.225 37.8339C118.225 37.9685 118.335 38.0777 118.469 38.0777Z" fill="#D89A47"/>
<path d="M162.137 146.758C162.132 147.446 162.087 148.133 162.004 148.815C161.922 149.498 161.814 150.179 161.675 150.855C161.535 151.53 161.367 152.199 161.177 152.862C160.987 153.525 160.752 154.177 160.5 154.82L160.302 155.299L160.088 155.772C160.02 155.932 159.941 156.085 159.865 156.241C159.79 156.396 159.716 156.548 159.63 156.702L159.382 157.158L159.117 157.605C159.032 157.758 158.934 157.898 158.841 158.044C158.748 158.189 158.653 158.335 158.549 158.473C158.153 159.04 157.716 159.577 157.242 160.08L156.876 160.447C156.817 160.509 156.752 160.566 156.688 160.624L156.495 160.797C156.245 161.033 155.965 161.235 155.696 161.448L156.064 161.088C156.125 161.028 156.188 160.971 156.247 160.908L156.422 160.72L156.597 160.533C156.655 160.471 156.715 160.41 156.768 160.344L157.1 159.955C157.156 159.891 157.209 159.824 157.262 159.756L157.415 159.555L157.569 159.354C157.622 159.287 157.668 159.215 157.718 159.147L158.015 158.732L158.295 158.305C158.661 157.734 158.997 157.143 159.302 156.536C159.609 155.928 159.892 155.312 160.138 154.678C160.64 153.412 161.054 152.112 161.377 150.788C161.71 149.461 161.963 148.115 162.137 146.758ZM50.0331 168.838C50.1662 169.278 50.3277 169.723 50.4946 170.158C50.6615 170.592 50.8523 171.025 51.0515 171.449C51.4486 172.3 51.907 173.121 52.4231 173.906C52.6838 174.296 52.9615 174.675 53.2546 175.042C53.5517 175.407 53.8678 175.755 54.2015 176.086C54.5404 176.413 54.9002 176.717 55.2785 176.998C55.6624 177.272 56.0675 177.514 56.49 177.724C56.0593 177.528 55.6449 177.298 55.2508 177.037C54.8611 176.767 54.4896 176.472 54.1385 176.154C53.7902 175.831 53.4593 175.491 53.1469 175.133C52.8392 174.773 52.5454 174.398 52.2677 174.013C51.7187 173.237 51.2269 172.422 50.7962 171.574C50.5792 171.151 50.3762 170.721 50.1869 170.285C49.9985 169.846 49.8208 169.408 49.6654 168.949L50.0331 168.838ZM49.2677 166.279C49.1232 165.214 49.0346 164.143 49.0023 163.068C48.9646 161.998 48.9677 160.926 49.02 159.858L49.0377 159.457L49.0654 159.057C49.0854 158.79 49.0985 158.523 49.1238 158.257C49.1785 157.725 49.2231 157.192 49.2992 156.663C49.4269 155.602 49.63 154.552 49.8492 153.509C49.6615 154.56 49.4908 155.613 49.3954 156.675C49.3346 157.205 49.3062 157.738 49.2677 158.268C49.2508 158.535 49.2454 158.801 49.2331 159.067L49.2177 159.465L49.2123 159.865C49.1915 160.929 49.2215 161.995 49.2892 163.055C49.3524 164.114 49.471 165.168 49.6446 166.215L49.2677 166.279Z" fill="#070208"/>
</g>
</g>
</g>
<defs>
<filter id="filter0_d_3_158" x="-81" y="-21" width="368" height="248" filterUnits="userSpaceOnUse" color-interpolation-filters="sRGB">
<feFlood flood-opacity="0" result="BackgroundImageFix"/>
<feColorMatrix in="SourceAlpha" type="matrix" values="0 0 0 0 0 0 0 0 0 0 0 0 0 0 0 0 0 0 127 0" result="hardAlpha"/>
<feOffset dy="4"/>
<feGaussianBlur stdDeviation="2"/>
<feComposite in2="hardAlpha" operator="out"/>
<feColorMatrix type="matrix" values="0 0 0 0 0 0 0 0 0 0 0 0 0 0 0 0 0 0 0.25 0"/>
<feBlend mode="normal" in2="BackgroundImageFix" result="effect1_dropShadow_3_158"/>
<feBlend mode="normal" in="SourceGraphic" in2="effect1_dropShadow_3_158" result="shape"/>
</filter>
<clipPath id="clip0_3_158">
<rect width="207" height="199" fill="white"/>
</clipPath>
<clipPath id="clip1_3_158">
<rect width="272" height="240" fill="white" transform="translate(-33 -21)"/>
</clipPath>
</defs>
</svg>
